# xmcd
#
# Track frame offsets: 
#        150
#        11720
#        21514
#        30819
#        39183
#        53248
#        65400
#        77132
#        87938
#        101879
#        113384
#        123289
#        136489
#        148823
#        159831
#        168969
#        178455
#        189216
#        198295
#        209091
#
# Disc length: 2961 seconds
#
# Revision: 0
# Processed by: cddbd v1.5.2PL0 Copyright (c) Steve Scherf et al.
# Submitted via: ExactAudioCopy v1.0b6
#
DISCID=0d0b8f14
DTITLE=Various Artist - Simply Country CD3
DYEAR=2015
DGENRE=Country
TTITLE0=Hank Williams - Baby, We're Really In Love
TTITLE1=Jimmie C. Newman - Alligator Man
TTITLE2=Buck Owens - Country Girl (Leavin' Dirty Tracks)
TTITLE3=Boxcar Willie - Hey, Good Lookin'
TTITLE4=Patsy Montana - I Want To Be A Cowboy's Sweetheart
TTITLE5=Bob Wills and His Texas Playboys - Take Me Back To Tulsa
TTITLE6=Ernest Tubb - Walking The Floor Over You
TTITLE7=Johnny Cash - Train Of Love
TTITLE8=Bill Monroe and His Bluegrass Boys - Blue Moon Of Kentucky
TTITLE9=Faron Young - Don't Let The Stars Get In Your Eyes
TTITLE10=Hank Williams - Honky Tonk Blues
TTITLE11=Tex Ritter - Jealous Heart
TTITLE12=Eddy Arnold - The Prisoner's Song
TTITLE13=Gene Autry - You Are My Sunshine
TTITLE14=Frankie Laine - Rawhide
TTITLE15=Willie Nelson - Building Heartaches
TTITLE16=Waylon Jennings - Dream Baby
TTITLE17=Conway Twitty - I Vibrate (From My Head To My Feet)
TTITLE18=Don Gibson - Look Who's Blue
TTITLE19=Lefty Frizzell - Travellin' Blues
EXTD=
EXTT0=
EXTT1=
EXTT2=
EXTT3=
EXTT4=
EXTT5=
EXTT6=
EXTT7=
EXTT8=
EXTT9=
EXTT10=
EXTT11=
EXTT12=
EXTT13=
EXTT14=
EXTT15=
EXTT16=
EXTT17=
EXTT18=
EXTT19=
PLAYORDER=
